<svg width="36" height="34" viewBox="0 0 36 34" fill="none" xmlns="http://www.w3.org/2000/svg">
<path d="M22 12H29" stroke="#FDFDFD" stroke-linecap="round" stroke-linejoin="round"/>
<path d="M21 19.4918H30C29.9981 18.4511 29.6365 17.4433 28.9767 16.6399C28.317 15.8365 27.3998 15.2871 26.3815 15.0854C25.3631 14.8836 24.3065 15.042 23.3915 15.5334C22.4765 16.0248 21.7596 16.819 21.363 17.7807C20.9664 18.7424 20.9146 19.8122 21.2163 20.8079C21.518 21.8037 22.1546 22.6638 23.0178 23.2418C23.881 23.8199 24.9173 24.0802 25.9504 23.9784C26.9834 23.8766 27.9494 23.419 28.6838 22.6835" stroke="#FDFDFD" stroke-linecap="round" stroke-linejoin="round"/>
<path d="M7 17.0312H14.26C15.2519 17.0313 16.2032 17.451 16.9046 18.1982C17.606 18.9455 18 19.9589 18 21.0156C18 22.0723 17.606 23.0858 16.9046 23.833C16.2032 24.5802 15.2519 25 14.26 25H7V10H12.94C13.8152 10 14.6546 10.3704 15.2735 11.0297C15.8923 11.689 16.24 12.5832 16.24 13.5156C16.24 14.448 15.8923 15.3422 15.2735 16.0015C14.6546 16.6609 13.8152 17.0312 12.94 17.0312" stroke="#FDFDFD" stroke-linecap="round" stroke-linejoin="round"/>
<rect x="0.5" y="0.5" width="35" height="33" stroke="#F9EDED"/>
<path d="M22 12H29" stroke="#FDFDFD" stroke-linecap="round" stroke-linejoin="round"/>
<path d="M21 19.4918H30C29.9981 18.4511 29.6365 17.4433 28.9767 16.6399C28.317 15.8365 27.3998 15.2871 26.3815 15.0854C25.3631 14.8836 24.3065 15.042 23.3915 15.5334C22.4765 16.0248 21.7596 16.819 21.363 17.7807C20.9664 18.7424 20.9146 19.8122 21.2163 20.8079C21.518 21.8037 22.1546 22.6638 23.0178 23.2418C23.881 23.8199 24.9173 24.0802 25.9504 23.9784C26.9834 23.8766 27.9494 23.419 28.6838 22.6835" stroke="#FDFDFD" stroke-linecap="round" stroke-linejoin="round"/>
<path d="M7 17.0312H14.26C15.2519 17.0313 16.2032 17.451 16.9046 18.1982C17.606 18.9455 18 19.9589 18 21.0156C18 22.0723 17.606 23.0858 16.9046 23.833C16.2032 24.5802 15.2519 25 14.26 25H7V10H12.94C13.8152 10 14.6546 10.3704 15.2735 11.0297C15.8923 11.689 16.24 12.5832 16.24 13.5156C16.24 14.448 15.8923 15.3422 15.2735 16.0015C14.6546 16.6609 13.8152 17.0312 12.94 17.0312" stroke="#FDFDFD" stroke-linecap="round" stroke-linejoin="round"/>
<rect x="0.5" y="0.5" width="35" height="33" stroke="#F9EDED"/>
</svg>
