<?xml version="1.0" encoding="UTF-8"?><svg id="Layer_1" xmlns="http://www.w3.org/2000/svg" viewBox="0 0 612 792"><defs><style>.cls-1{fill:#110c18;}</style></defs><path class="cls-1" d="M452.73,320.41c-5,2.36-9.75,4.61-15.09,7.13-11.19-21.59-25.55-39.95-46.09-54.18-2.15,3.08-4.23,5.77-6.01,8.64-11.79,19.04-23.3,38.26-35.42,57.1-3.05,4.75-2.77,8.07-.03,12.55,18.13,29.69,36.22,59.4,53.93,89.34,6.02,10.18,10.87,21.04,16.26,31.59l2.32,.81c6.32-10.57,12.63-21.14,19.62-32.82,3.52,1.38,7.96,2.67,11.82,4.94,1.11,.66,1.39,4.53,.62,6.31-12.88,29.57-33.15,52.94-60.62,69.71-91.58,55.93-211.04,4.41-233.55-100.55-17.55-81.85,30.58-162.6,110.3-185.06,70.61-19.9,147.83,14.45,180.15,80.13,.6,1.21,1.03,2.5,1.78,4.35Zm-121.87,48.14c-5.14,7.77-9.78,13.68-9.67,22.87,.54,42.51,.33,85.04,.13,127.55-.03,5.38,.96,7.58,6.93,6.95,28.31-2.96,52.95-14.11,74.67-32.26,3.75-3.13,1.77-5.45-.01-8.33-19.12-31-38.17-62.05-57.26-93.06-4.73-7.68-9.54-15.31-14.79-23.72Zm-106.72-87.48c-61.97,50.3-64.36,145.07-13.72,198.39,10.55-36.67,17.38-74.5,45.51-103.11-19.88-7.24-31.16-21.16-35.83-40.61-4.45-18.56-3.56-36.84,4.04-54.68Zm66.43,243.72c0-2.99,.02-5.24,0-7.48-.48-42.71-.97-85.43-1.44-128.14-.1-8.97-.2-9.18-8.97-8.34-2.48,.24-5.51,.64-7.2,2.17-6.18,5.55-12.99,10.87-17.58,17.63-13.64,20.08-20.92,43.04-27.62,66.14q-7.93,27.31,16.8,41.69c13.99,8.09,28.93,13.62,46.02,16.33Zm95.02-255.56c-37.63-23.01-76.66-26.85-117.76-13.51,2.09,.9,4.26,1.11,6.43,1.21,12.96,.57,25.92,1.24,38.88,1.61,5.52,.16,6.95,2.73,6.97,7.95,.05,22.42,.52,44.84,.75,67.26,.11,11.05,.02,22.09,.02,33.14,.85,.24,1.71,.48,2.56,.72,20.56-32.55,41.13-65.1,62.15-98.38Zm-96.57,101.72c0-3.02,.04-6.22,0-9.43-.35-25.88-.8-51.76-1.06-77.65-.18-18.2-.08-18.2-18.41-16.42-14.57,1.42-22.51,7.43-25.96,21.33-4.73,19.04-5.19,38.23,.47,57.27,6.2,20.87,22.65,30.18,44.97,24.89Z"/></svg>