<svg width="36" height="34" viewBox="0 0 36 34" fill="none" xmlns="http://www.w3.org/2000/svg">
<path d="M19.5 21C21.9853 21 24 19.2091 24 17C24 14.7909 21.9853 13 19.5 13C17.0147 13 15 14.7909 15 17C15 19.2091 17.0147 21 19.5 21Z" stroke="#FDFDFD" stroke-linecap="round" stroke-linejoin="round"/>
<path d="M23.7826 8H14.2174C11.3359 8 9 10.1023 9 12.6957V21.3043C9 23.8977 11.3359 26 14.2174 26H23.7826C26.6641 26 29 23.8977 29 21.3043V12.6957C29 10.1023 26.6641 8 23.7826 8Z" stroke="#FDFDFD" stroke-linecap="round" stroke-linejoin="round"/>
<path d="M25 12C25.5523 12 26 11.5523 26 11C26 10.4477 25.5523 10 25 10C24.4477 10 24 10.4477 24 11C24 11.5523 24.4477 12 25 12Z" fill="#FDFDFD"/>
<rect x="0.5" y="0.5" width="35" height="33" stroke="#F9EDED"/>
<path d="M19.5 21C21.9853 21 24 19.2091 24 17C24 14.7909 21.9853 13 19.5 13C17.0147 13 15 14.7909 15 17C15 19.2091 17.0147 21 19.5 21Z" stroke="#FDFDFD" stroke-linecap="round" stroke-linejoin="round"/>
<path d="M23.7826 8H14.2174C11.3359 8 9 10.1023 9 12.6957V21.3043C9 23.8977 11.3359 26 14.2174 26H23.7826C26.6641 26 29 23.8977 29 21.3043V12.6957C29 10.1023 26.6641 8 23.7826 8Z" stroke="#FDFDFD" stroke-linecap="round" stroke-linejoin="round"/>
<path d="M25 12C25.5523 12 26 11.5523 26 11C26 10.4477 25.5523 10 25 10C24.4477 10 24 10.4477 24 11C24 11.5523 24.4477 12 25 12Z" fill="#FDFDFD"/>
<rect x="0.5" y="0.5" width="35" height="33" stroke="#F9EDED"/>
</svg>
