<svg width="37" height="34" viewBox="0 0 37 34" fill="none" xmlns="http://www.w3.org/2000/svg">
<path d="M27.1304 8H8.86957C8.38932 8 8 8.35039 8 8.78261V25.2174C8 25.6496 8.38932 26 8.86957 26H27.1304C27.6107 26 28 25.6496 28 25.2174V8.78261C28 8.35039 27.6107 8 27.1304 8Z" stroke="#FDFDFD" stroke-linecap="round" stroke-linejoin="round"/>
<path d="M18 15V22" stroke="#FDFDFD" stroke-linecap="round" stroke-linejoin="round"/>
<path d="M15 15V22" stroke="#FDFDFD" stroke-linecap="round" stroke-linejoin="round"/>
<path d="M18 18.0625C18 17.2503 18.3161 16.4713 18.8787 15.897C19.4413 15.3227 20.2044 15 21 15C21.7956 15 22.5587 15.3227 23.1213 15.897C23.6839 16.4713 24 17.2503 24 18.0625V22" stroke="#FDFDFD" stroke-linecap="round" stroke-linejoin="round"/>
<path d="M14 13C14.5523 13 15 12.3284 15 11.5C15 10.6716 14.5523 10 14 10C13.4477 10 13 10.6716 13 11.5C13 12.3284 13.4477 13 14 13Z" fill="#FDFDFD"/>
<rect x="0.5" y="0.5" width="36" height="33" stroke="#F9EDED"/>
<path d="M27.1304 8H8.86957C8.38932 8 8 8.35039 8 8.78261V25.2174C8 25.6496 8.38932 26 8.86957 26H27.1304C27.6107 26 28 25.6496 28 25.2174V8.78261C28 8.35039 27.6107 8 27.1304 8Z" stroke="#FDFDFD" stroke-linecap="round" stroke-linejoin="round"/>
<path d="M18 15V22" stroke="#FDFDFD" stroke-linecap="round" stroke-linejoin="round"/>
<path d="M15 15V22" stroke="#FDFDFD" stroke-linecap="round" stroke-linejoin="round"/>
<path d="M18 18.0625C18 17.2503 18.3161 16.4713 18.8787 15.897C19.4413 15.3227 20.2044 15 21 15C21.7956 15 22.5587 15.3227 23.1213 15.897C23.6839 16.4713 24 17.2503 24 18.0625V22" stroke="#FDFDFD" stroke-linecap="round" stroke-linejoin="round"/>
<path d="M14 13C14.5523 13 15 12.3284 15 11.5C15 10.6716 14.5523 10 14 10C13.4477 10 13 10.6716 13 11.5C13 12.3284 13.4477 13 14 13Z" fill="#FDFDFD"/>
<rect x="0.5" y="0.5" width="36" height="33" stroke="#F9EDED"/>
</svg>
