<svg width="368" height="387" viewBox="0 0 368 387" fill="none" xmlns="http://www.w3.org/2000/svg">
<path d="M365.081 111.02C358.911 113.927 353.05 116.699 346.46 119.804C332.651 93.2052 314.93 70.5862 289.583 53.0551C286.93 56.8496 284.363 60.1637 282.166 63.6994C267.617 87.1562 253.413 110.835 238.457 134.045C234.693 139.897 235.039 143.987 238.42 149.506C260.793 186.084 283.117 222.686 304.971 259.571C312.4 272.113 318.385 285.492 325.037 298.489L327.9 299.487C335.699 286.465 343.486 273.443 352.112 259.054C356.456 260.754 361.935 262.343 366.698 265.14C368.068 265.953 368.413 270.721 367.463 272.913C351.569 309.343 326.555 338.134 292.656 358.794C179.643 427.699 32.2243 364.227 4.44615 234.919C-17.2112 134.082 42.183 34.6002 140.561 6.93001C227.696 -17.5863 322.988 24.732 362.873 105.648C363.613 107.139 364.144 108.728 365.069 111.007L365.081 111.02ZM214.689 170.327C208.346 179.899 202.62 187.18 202.756 198.502C203.422 250.873 203.163 303.269 202.917 355.641C202.879 362.269 204.101 364.979 211.468 364.203C246.404 360.556 276.811 346.82 303.614 324.459C308.242 320.603 305.798 317.745 303.602 314.197C280.007 276.006 256.498 237.753 232.941 199.549C227.104 190.088 221.168 180.688 214.689 170.327ZM82.9927 62.5537C6.51932 124.522 3.56997 241.276 66.0617 306.965C79.0808 261.789 87.5092 215.183 122.223 179.936C97.6901 171.017 83.7701 153.868 78.0072 129.906C72.5157 107.04 73.614 84.5198 82.9927 62.5414V62.5537ZM164.97 362.811C164.97 359.127 164.995 356.355 164.97 353.595C164.378 300.978 163.773 248.348 163.193 195.73C163.069 184.679 162.946 184.421 152.123 185.456C149.063 185.751 145.324 186.244 143.238 188.129C135.612 194.966 127.208 201.52 121.544 209.849C104.712 234.587 95.7279 262.873 87.4599 291.331C80.9359 313.762 87.8465 330.882 108.192 342.693C125.456 352.659 143.892 359.472 164.982 362.811H164.97ZM282.228 47.9671C235.791 19.6194 187.627 14.8886 136.908 31.3231C139.487 32.4319 142.165 32.6906 144.843 32.8138C160.836 33.516 176.829 34.3415 192.822 34.7973C199.634 34.9944 201.399 38.1606 201.423 44.5915C201.485 72.2124 202.065 99.8333 202.349 127.454C202.485 141.067 202.374 154.668 202.374 168.282C203.422 168.577 204.484 168.873 205.533 169.169C230.904 129.068 256.289 88.9672 282.228 47.9671ZM163.057 173.284C163.057 169.563 163.106 165.621 163.057 161.666C162.625 129.783 162.07 97.899 161.749 66.0032C161.527 43.5813 161.65 43.5813 139.03 45.7742C121.05 47.5236 111.252 54.9278 106.995 72.0522C101.158 95.509 100.59 119.151 107.575 142.607C115.226 168.319 135.526 179.788 163.069 173.271L163.057 173.284Z" fill="#987A51"/>
</svg>
