<?xml version="1.0" encoding="UTF-8"?><svg id="Layer_1" xmlns="http://www.w3.org/2000/svg" viewBox="0 0 328.75 327"><defs><style>.cls-1{fill:#fff;}.cls-1,.cls-2{stroke:#231f20;stroke-miterlimit:10;stroke-width:3px;}.cls-2{fill:#180d0b;}</style></defs><path class="cls-2" d="M327.25,163.5c0,89.47-72.53,162-162,162-28.48,0-55.25-7.35-78.5-20.26,19.57,9.78,41.48,15.26,64.62,15.26,82.78,0,149.88-70.07,149.88-156.5S234.15,7.5,151.37,7.5c-30.94,0-59.69,9.79-83.57,26.58C94.91,13.62,128.66,1.5,165.25,1.5c89.47,0,162,72.53,162,162Z"/><path class="cls-1" d="M86.75,305.24C36.32,280.04,1.5,226.27,1.5,164,1.5,109.88,27.81,62.18,67.8,34.08,28.59,63.64,3.25,110.61,3.25,163.5c0,60.99,33.7,114.11,83.5,141.74Z"/></svg>